<svg width="1366" height="1366" viewBox="0 0 1366 1366" fill="none" xmlns="http://www.w3.org/2000/svg">
<path d="M823.867 276.667C820 278.8 818.667 281.6 815.333 295.333C812.667 306.133 804.8 323.733 798.8 332.533C796.4 335.867 786 347.467 775.6 358.267C765.2 369.2 753.867 382.267 750.4 387.467C735.733 409.467 728.4 431.2 727.067 456.267C726 477.067 728.667 492.667 736.667 512.267C737.467 514.4 736.8 514.667 731.467 514.667C722.667 514.667 716.933 520 714.133 531.067C702.133 578.133 693.333 615.867 693.333 619.867C693.333 625.6 696 631.6 705.867 648.4C723.333 678 726.533 689.867 722.133 708.267C720.267 716.533 699.6 772.267 686.267 805.2L680.8 818.933L665.6 773.2C648.667 721.867 644 705.333 644 695.867C644 686.533 646.4 676.4 650.8 667.867C655.467 658.533 668.533 641.867 675.2 636.8C677.867 634.8 682 630.667 684.133 627.6C690.133 619.333 690.267 621.733 676.8 547.333C673.467 528.933 670.4 512.133 670 509.733C669.2 505.467 663.6 498.267 660.133 497.2C658.533 496.667 658.533 495.467 660.4 490C662.933 482.8 662.667 480.533 652.667 426.667C650.133 413.067 645.6 388.533 642.667 372C630.933 307.333 629.467 300.133 627.467 296.267C626.4 294.133 623.333 291.333 620.667 290.133C616.133 288 615.2 288 602.267 290.533C590.267 292.933 517.467 306.4 478.667 313.333C432.133 321.733 414 325.467 411.2 327.333C409.333 328.533 407.2 331.067 406.4 333.067C404.667 337.467 405.2 340.933 421.333 428C428 464.267 434.667 500.533 436 508.533C438.667 523.333 440.667 528.133 445.333 530.667C447.867 532 447.867 532.133 445.333 536.4C441.733 542.267 441.867 546.4 448 580.267C450.933 596.667 455.2 620.133 457.333 632.4C462.933 663.467 463.467 664.267 482.667 671.333C501.467 678.4 510.4 683.733 521.467 694.667C532.533 705.6 538.933 716.8 541.333 729.333C542 733.2 543.6 758.267 544.667 785.2C549.867 911.2 559.6 976.133 579.2 1017.6C594.8 1050.4 618.933 1072.13 648.933 1080.13C663.2 1084 684.667 1084 699.333 1080.13C737.467 1070 764.4 1041.33 781.333 992.667C797.467 946.133 806.267 886.533 813.333 774C815.333 742.8 817.467 730.933 823.2 719.333C830.8 703.867 841.6 694.533 866.133 682.267C880 675.333 885.733 670.933 887.733 665.733C888.667 663.6 892.533 647.6 896.667 630C900.667 612.4 905.6 591.6 907.467 583.733L910.933 569.467L908 563.333C906.4 560 904.667 557.333 904.267 557.333C903.733 557.2 901.867 556 900.133 554.667L897.067 552L903.733 546C919.067 532.133 932.667 508.267 939.467 483.333C942.667 471.467 943.067 467.6 943.2 448C943.2 424.933 941.733 415.6 934.4 393.333C920.267 350.533 884 306 843.467 281.6C838.267 278.533 833.467 276 832.533 276C831.6 276 830.133 275.733 829.067 275.333C828.133 275.067 825.733 275.6 823.867 276.667ZM858 338C870 359.467 874.133 379.467 872.933 410.667L872.267 430L876.933 424.667C884.133 416.533 888.4 406.933 893.467 388L895.067 382L897.467 390C905.733 416.8 902.933 451.733 889.867 482C885.467 492.133 874.8 509.867 865.467 522.267C863.6 524.667 862.533 526.933 862.933 527.333C863.2 527.733 867.467 526.133 872.133 523.733C878.133 520.8 884.133 516 892.4 507.733C902.8 497.2 903.867 496.533 901.067 501.467C895.733 511.067 880.667 526.133 871.6 530.667C867.2 532.8 862.667 534.667 861.6 534.667C859.867 534.667 828 527.467 822.4 525.867C820.4 525.2 820.8 524.133 825.2 518.267C836.667 502.933 844 487.467 847.333 471.2C850.8 454.133 849.333 449.6 843.867 460.667C839.2 470 824.667 487.333 816 494C807.6 500.533 794.133 507.6 783.067 511.333L776.267 513.733L772.8 509.867C768.267 504.667 762 491.6 759.867 482.667C757.2 471.867 757.867 450.8 761.2 437.733C767.067 415.2 772.8 406 796.667 381.333C806.267 371.467 816.933 359.733 820.4 355.333C826.667 347.067 835.733 330 838.667 320.667L840.4 315.467L846.8 322.4C850.4 326.267 855.467 333.333 858 338ZM601.6 327.6C602.267 331.2 617.067 412.533 625.333 457.333C627.6 469.467 629.733 480.667 630 482.133C630.533 484.667 629.867 485.2 624.533 486C621.2 486.4 618.133 486.533 617.733 486.267C617.467 485.867 614.133 471.867 610.533 455.067C607.067 438.4 603.2 422.133 602 419.2C599.6 412.8 595.467 410.8 593.2 414.8C591.467 418.133 592.267 425.467 598.133 459.067C600.667 473.467 602.667 486.533 602.667 487.867C602.667 489.867 601.333 490.533 595.867 491.2C592.133 491.733 588.667 491.867 588.267 491.467C587.867 491.067 585.2 478.8 582.4 464.4C576.667 435.467 575.333 431.467 571.2 430.933C563.867 429.867 563.467 438.267 569.2 469.6C571.467 481.867 573.333 492.8 573.333 493.733C573.333 495.6 560 499.067 558.4 497.6C558 497.067 554.8 481.067 551.467 462C543.733 418.667 542.8 414.533 540.267 411.6C535.733 406.4 528 410.267 528 417.733C528 421.467 536.8 470 541.467 492.4C542.4 496.933 542.533 500.667 541.867 501.2C541.2 501.867 537.6 502.8 534 503.333L527.2 504.133L525.6 497.733C523.6 490.533 520.667 486.667 517.2 486.667C513.6 486.667 512.667 489.2 512.667 498.667V507.333L506.267 508.533C502.8 509.067 499.6 509.333 499.2 509.067C498.533 508.267 493.333 481.733 489.2 458.133C487.733 449.333 486 441.067 485.2 439.733C483.2 436 476.533 436.533 473.867 440.667C471.467 444.4 471.733 446.533 480.267 490.533C482.4 501.733 483.733 511.467 483.067 512C481.467 513.467 470.933 514.8 470.267 513.733C469.467 512.533 460.133 462.933 451.333 414C448 394.933 444.267 374.667 443.2 368.8C440.533 354 440.667 352.667 444.8 352.267C448.4 352 529.733 337.2 588.667 326C593.867 325.067 598.667 324.267 599.467 324.133C600.4 324 601.333 325.6 601.6 327.6ZM639.2 522.267C639.733 525.067 640.4 528.933 640.8 530.8L641.467 534.4L615.733 539.2C587.867 544.533 548.267 552.133 509.333 559.467C495.733 562 483.067 564.4 481.067 564.8C477.867 565.467 477.467 565.067 476.667 560.933C476.133 558.4 475.6 554.267 475.6 551.867C475.333 547.733 475.6 547.467 480.667 546.4C483.6 545.867 513.6 540.267 547.333 534.133C581.067 527.867 614.667 521.6 622 520.133C629.333 518.8 636 517.6 636.8 517.467C637.733 517.333 638.8 519.6 639.2 522.267ZM773.867 546.667C788.667 550.267 813.333 556.267 828.667 560C867.067 569.333 876.133 571.733 877.067 572.533C878.267 573.867 874.533 588 872.933 588C872 588 854.267 583.867 833.333 578.8C812.4 573.733 786 567.333 774.667 564.667C742.267 556.933 739.733 556.133 740.533 553.6C740.933 552.4 741.867 548.8 742.667 545.6C743.467 542.533 744.8 540 745.6 540C746.4 540 759.067 542.933 773.867 546.667ZM651.067 582.933C652.8 590.533 652.667 591.467 650.8 592.267C649.6 592.8 638.8 595.067 626.667 597.333C614.533 599.6 595.333 603.2 584 605.333C534.667 614.667 489.067 622.8 488.533 622.267C487.6 621.467 484.933 606.667 485.6 606C486 605.6 639.067 576.267 648.267 574.8C648.8 574.667 650 578.4 651.067 582.933ZM755.2 589.867C765.6 592.4 782.4 596.267 792.667 598.667C802.933 600.933 823.733 606 839.067 609.733C866 616.4 866.667 616.667 866.667 620C866.667 621.867 866 625.467 865.333 628.133C864 632.8 863.733 632.933 859.6 632C849.467 629.467 778.667 612.667 756.267 607.467C742.933 604.267 731.6 601.333 731.067 600.8C729.733 599.6 733.333 585.333 735.067 585.333C735.867 585.333 744.933 587.333 755.2 589.867ZM632.4 634.933C628 639.867 620 654.133 617.333 661.733C608.533 686.533 610.267 707.467 624.4 751.333C640.533 801.467 658.8 859.467 660.533 866.267C662.4 873.333 662.4 875.067 660.667 880.8C658.8 887.333 656.533 896 650.133 920C647.2 931.467 642.8 952.8 640.667 965.6C640.133 969.467 639.067 970.667 636 971.867C626.933 974.933 621.333 986.133 623.867 995.733C625.467 1001.6 631.067 1007.47 636.267 1008.67C639.333 1009.47 639.867 1010.4 640.667 1016.4C641.467 1022.53 645.733 1037.47 648.667 1044.53C649.6 1046.53 648.8 1046.27 643.867 1043.33C624.133 1030.8 612.4 1014.93 602 986C593.733 963.333 587.867 930.533 582.8 879.333C578.4 835.733 577.333 820.4 575.333 770.533C573.067 718.267 572.4 713.733 564.133 696.667C556.8 681.867 545.6 668.933 532.267 660C521.733 652.933 521.467 652.667 524.933 651.733C527.067 651.2 545.733 647.6 566.667 643.867C587.6 640.133 610.667 636 618 634.667C635.867 631.467 635.733 631.333 632.4 634.933ZM758.933 640.533C769.467 643.067 792.267 648.533 809.6 652.667L841.2 660.133L832.4 664.8C815.733 673.467 801.867 688.133 793.467 705.867C786.267 720.8 784.133 733.6 781.333 776.267C774.4 885.867 764.8 946 747.2 990C737.333 1014.93 722.8 1033.07 706.4 1041.33C695.333 1046.8 690.8 1046.67 685.467 1040.67C657.467 1008.8 671.2 930.667 732.4 774C742.667 747.6 751.733 722.4 754.133 713.6C756.667 703.6 756.667 683.733 754.133 673.6C751.733 664.267 745.867 650.933 740.8 642.933C738.933 639.867 737.333 637.067 737.333 636.667C737.333 635.467 739.2 635.867 758.933 640.533Z" fill="white"/>
<path d="M810.8 388.8C803.333 391.867 790.133 406.667 784.933 417.6C777.733 432.4 775.333 449.867 779.467 455.733C781.733 459.067 788.133 459.733 790.533 456.8C791.333 455.733 793.867 449.333 796 442.533C800 429.733 806.267 418.667 815.733 408C823.333 399.2 824.533 396.667 822.4 392.4C820.133 387.733 816.267 386.533 810.8 388.8Z" fill="white"/>
<path d="M616.4 858.667C605.333 865.333 605.2 884 616.267 890.133C627.067 896.267 642.667 887.733 642.667 875.733C642.667 860.533 628.4 851.333 616.4 858.667Z" fill="white"/>
<path d="M726.8 873.733C719.867 876.133 716.667 881.467 716.667 890.4C716.667 902.133 722.267 908.267 732.933 908.267C739.733 908.267 744.4 905.6 748 899.6C753.467 890.667 750.4 879.333 741.333 874.667C735.333 871.6 733.2 871.467 726.8 873.733Z" fill="white"/>
<path d="M700.667 976.533C693.733 979.6 690.267 984.533 689.6 992.4C688.533 1004.93 695.867 1013.33 707.733 1013.33C727.067 1013.33 733.867 985.6 716.667 977.333C710.267 974.267 706.267 974 700.667 976.533Z" fill="white"/>
</svg>
